<mxfile host="Electron" modified="2024-01-24T03:03:48.737Z" agent="Mozilla/5.0 (Macintosh; Intel Mac OS X 10_15_7) AppleWebKit/537.36 (KHTML, like Gecko) draw.io/22.1.18 Chrome/120.0.6099.199 Electron/28.1.2 Safari/537.36" etag="0mFXSz1x-apIN2cBoKoB" version="22.1.18" type="device" pages="5">
  <diagram name="main" id="m0zTKrYATkNEm8Ja8VeW">
    <mxGraphModel dx="1114" dy="670" grid="1" gridSize="10" guides="1" tooltips="1" connect="1" arrows="1" fold="1" page="1" pageScale="1" pageWidth="850" pageHeight="1100" math="0" shadow="0">
      <root>
        <mxCell id="0" />
        <mxCell id="1" parent="0" />
        <mxCell id="Muvezk4lKv8oPnv4ykob-2" value="output" style="rhombus;whiteSpace=wrap;html=1;rounded=1;fillColor=#0050ef;fontColor=#ffffff;strokeColor=#001DBC;fontStyle=1;glass=0;sketch=0;fontSize=12;points=[[0,0.5,0,0,0],[0.5,0,0,0,0],[0.5,1,0,0,0],[1,0.5,0,0,0]];shadow=1;" parent="1" vertex="1">
          <mxGeometry x="1160" y="252.5" width="80" height="80" as="geometry" />
        </mxCell>
        <mxCell id="Muvezk4lKv8oPnv4ykob-3" value="error" style="rhombus;whiteSpace=wrap;html=1;rounded=1;fillColor=#0050ef;fontColor=#ffffff;strokeColor=#001DBC;fontStyle=1;glass=0;sketch=0;fontSize=12;points=[[0,0.5,0,0,0],[0.5,0,0,0,0],[0.5,1,0,0,0],[1,0.5,0,0,0]];shadow=1;" parent="1" vertex="1">
          <mxGeometry x="1160" y="360" width="80" height="80" as="geometry" />
        </mxCell>
        <mxCell id="Muvezk4lKv8oPnv4ykob-4" value="input" style="rhombus;whiteSpace=wrap;html=1;rounded=1;fontStyle=1;glass=0;sketch=0;fontSize=12;points=[[0,0.5,0,0,0],[0.5,0,0,0,0],[0.5,1,0,0,0],[1,0.5,0,0,0]];shadow=1;" parent="1" vertex="1">
          <mxGeometry x="10" y="252.5" width="80" height="80" as="geometry" />
        </mxCell>
        <mxCell id="Muvezk4lKv8oPnv4ykob-5" style="edgeStyle=orthogonalEdgeStyle;rounded=1;orthogonalLoop=1;jettySize=auto;html=1;entryX=0;entryY=0.5;entryDx=0;entryDy=0;entryPerimeter=0;strokeWidth=2;curved=0;" parent="1" source="Muvezk4lKv8oPnv4ykob-4" target="Muvezk4lKv8oPnv4ykob-7" edge="1">
          <mxGeometry relative="1" as="geometry" />
        </mxCell>
        <mxCell id="Muvezk4lKv8oPnv4ykob-6" value="Read Text File" style="rounded=1;whiteSpace=wrap;html=1;sketch=0;container=1;recursiveResize=0;verticalAlign=top;arcSize=6;fontStyle=0;autosize=0;points=[];absoluteArcSize=1;shadow=1;strokeColor=#001DBC;fillColor=#0050ef;fontColor=#ffffff;fontFamily=Helvetica;fontSize=11;" parent="1" vertex="1">
          <mxGeometry x="180" y="240" width="130" height="125" as="geometry">
            <mxRectangle x="-98" y="-1230" width="99" height="26" as="alternateBounds" />
          </mxGeometry>
        </mxCell>
        <mxCell id="Muvezk4lKv8oPnv4ykob-7" value="input" style="rounded=1;whiteSpace=wrap;html=1;sketch=0;points=[[0,0.5,0,0,0],[1,0.5,0,0,0]];arcSize=50;fontFamily=Helvetica;fontSize=11;fontColor=default;" parent="Muvezk4lKv8oPnv4ykob-6" vertex="1">
          <mxGeometry x="-18.75" y="40" width="66" height="25" as="geometry" />
        </mxCell>
        <mxCell id="Muvezk4lKv8oPnv4ykob-8" value="output" style="rounded=1;whiteSpace=wrap;html=1;sketch=0;points=[[0,0.5,0,0,0],[1,0.5,0,0,0]];fillColor=#1ba1e2;fontColor=#ffffff;strokeColor=#006EAF;arcSize=50;fontFamily=Helvetica;fontSize=11;" parent="Muvezk4lKv8oPnv4ykob-6" vertex="1">
          <mxGeometry x="82.75" y="40" width="66" height="25" as="geometry" />
        </mxCell>
        <mxCell id="Muvezk4lKv8oPnv4ykob-9" value="error" style="rounded=1;whiteSpace=wrap;sketch=0;points=[[0,0.5,0,0,0],[1,0.5,0,0,0]];fillColor=#1ba1e2;fontColor=#ffffff;strokeColor=#006EAF;arcSize=50;fontFamily=Helvetica;fontSize=11;opacity=30;textOpacity=30;" parent="Muvezk4lKv8oPnv4ykob-6" vertex="1">
          <mxGeometry x="82.75" y="82.5" width="66" height="25" as="geometry" />
        </mxCell>
        <mxCell id="Muvezk4lKv8oPnv4ykob-10" style="edgeStyle=orthogonalEdgeStyle;rounded=1;orthogonalLoop=1;jettySize=auto;html=1;exitX=1;exitY=0.5;exitDx=0;exitDy=0;exitPerimeter=0;curved=0;strokeWidth=2;entryX=0;entryY=0.5;entryDx=0;entryDy=0;entryPerimeter=0;" parent="1" source="Muvezk4lKv8oPnv4ykob-8" target="Muvezk4lKv8oPnv4ykob-13" edge="1">
          <mxGeometry relative="1" as="geometry" />
        </mxCell>
        <mxCell id="Muvezk4lKv8oPnv4ykob-11" style="edgeStyle=orthogonalEdgeStyle;rounded=1;orthogonalLoop=1;jettySize=auto;html=1;exitX=1;exitY=0.5;exitDx=0;exitDy=0;exitPerimeter=0;entryX=0;entryY=0.5;entryDx=0;entryDy=0;entryPerimeter=0;curved=0;opacity=30;" parent="1" source="Muvezk4lKv8oPnv4ykob-9" target="Muvezk4lKv8oPnv4ykob-3" edge="1">
          <mxGeometry relative="1" as="geometry">
            <Array as="points">
              <mxPoint x="360" y="335" />
              <mxPoint x="360" y="400" />
            </Array>
          </mxGeometry>
        </mxCell>
        <mxCell id="Muvezk4lKv8oPnv4ykob-12" value="Escape Whitespace" style="rounded=1;whiteSpace=wrap;html=1;sketch=0;container=1;recursiveResize=0;verticalAlign=top;arcSize=6;fontStyle=0;autosize=0;points=[];absoluteArcSize=1;shadow=1;strokeColor=#001DBC;fillColor=#0050ef;fontColor=#ffffff;fontFamily=Helvetica;fontSize=11;" parent="1" vertex="1">
          <mxGeometry x="430" y="240" width="130" height="125" as="geometry">
            <mxRectangle x="-98" y="-1230" width="99" height="26" as="alternateBounds" />
          </mxGeometry>
        </mxCell>
        <mxCell id="Muvezk4lKv8oPnv4ykob-13" value="input" style="rounded=1;whiteSpace=wrap;html=1;sketch=0;points=[[0,0.5,0,0,0],[1,0.5,0,0,0]];arcSize=50;fontFamily=Helvetica;fontSize=11;fontColor=default;" parent="Muvezk4lKv8oPnv4ykob-12" vertex="1">
          <mxGeometry x="-18.75" y="40" width="66" height="25" as="geometry" />
        </mxCell>
        <mxCell id="Muvezk4lKv8oPnv4ykob-14" value="output" style="rounded=1;whiteSpace=wrap;html=1;sketch=0;points=[[0,0.5,0,0,0],[1,0.5,0,0,0]];fillColor=#1ba1e2;fontColor=#ffffff;strokeColor=#006EAF;arcSize=50;fontFamily=Helvetica;fontSize=11;" parent="Muvezk4lKv8oPnv4ykob-12" vertex="1">
          <mxGeometry x="82.75" y="40" width="66" height="25" as="geometry" />
        </mxCell>
        <mxCell id="Muvezk4lKv8oPnv4ykob-15" value="error" style="rounded=1;whiteSpace=wrap;sketch=0;points=[[0,0.5,0,0,0],[1,0.5,0,0,0]];fillColor=#1ba1e2;fontColor=#ffffff;strokeColor=#006EAF;arcSize=50;fontFamily=Helvetica;fontSize=11;opacity=30;textOpacity=30;" parent="Muvezk4lKv8oPnv4ykob-12" vertex="1">
          <mxGeometry x="82.75" y="82.5" width="66" height="25" as="geometry" />
        </mxCell>
        <mxCell id="Muvezk4lKv8oPnv4ykob-16" style="edgeStyle=orthogonalEdgeStyle;rounded=1;orthogonalLoop=1;jettySize=auto;html=1;exitX=1;exitY=0.5;exitDx=0;exitDy=0;exitPerimeter=0;entryX=0;entryY=0.5;entryDx=0;entryDy=0;entryPerimeter=0;curved=0;opacity=30;" parent="1" source="Muvezk4lKv8oPnv4ykob-15" target="Muvezk4lKv8oPnv4ykob-3" edge="1">
          <mxGeometry relative="1" as="geometry">
            <Array as="points">
              <mxPoint x="640" y="335" />
              <mxPoint x="640" y="400" />
            </Array>
          </mxGeometry>
        </mxCell>
        <mxCell id="Muvezk4lKv8oPnv4ykob-17" value="Scheme to JS" style="rounded=1;whiteSpace=wrap;html=1;sketch=0;container=1;recursiveResize=0;verticalAlign=top;arcSize=6;fontStyle=0;autosize=0;points=[];absoluteArcSize=1;shadow=1;strokeColor=#001DBC;fillColor=#0050ef;fontColor=#ffffff;fontFamily=Helvetica;fontSize=11;" parent="1" vertex="1">
          <mxGeometry x="680" y="240" width="130" height="125" as="geometry">
            <mxRectangle x="-98" y="-1230" width="99" height="26" as="alternateBounds" />
          </mxGeometry>
        </mxCell>
        <mxCell id="Muvezk4lKv8oPnv4ykob-18" value="input" style="rounded=1;whiteSpace=wrap;html=1;sketch=0;points=[[0,0.5,0,0,0],[1,0.5,0,0,0]];arcSize=50;fontFamily=Helvetica;fontSize=11;fontColor=default;" parent="Muvezk4lKv8oPnv4ykob-17" vertex="1">
          <mxGeometry x="-18.75" y="40" width="66" height="25" as="geometry" />
        </mxCell>
        <mxCell id="Muvezk4lKv8oPnv4ykob-19" value="output" style="rounded=1;whiteSpace=wrap;html=1;sketch=0;points=[[0,0.5,0,0,0],[1,0.5,0,0,0]];fillColor=#1ba1e2;fontColor=#ffffff;strokeColor=#006EAF;arcSize=50;fontFamily=Helvetica;fontSize=11;" parent="Muvezk4lKv8oPnv4ykob-17" vertex="1">
          <mxGeometry x="82.75" y="40" width="66" height="25" as="geometry" />
        </mxCell>
        <mxCell id="Muvezk4lKv8oPnv4ykob-20" value="error" style="rounded=1;whiteSpace=wrap;sketch=0;points=[[0,0.5,0,0,0],[1,0.5,0,0,0]];fillColor=#1ba1e2;fontColor=#ffffff;strokeColor=#006EAF;arcSize=50;fontFamily=Helvetica;fontSize=11;opacity=30;textOpacity=30;" parent="Muvezk4lKv8oPnv4ykob-17" vertex="1">
          <mxGeometry x="82.75" y="82.5" width="66" height="25" as="geometry" />
        </mxCell>
        <mxCell id="Muvezk4lKv8oPnv4ykob-21" style="edgeStyle=orthogonalEdgeStyle;shape=connector;curved=0;rounded=1;jumpStyle=arc;orthogonalLoop=1;jettySize=auto;html=1;exitX=1;exitY=0.5;exitDx=0;exitDy=0;exitPerimeter=0;entryX=0;entryY=0.5;entryDx=0;entryDy=0;entryPerimeter=0;labelBackgroundColor=default;strokeColor=default;strokeWidth=2;align=center;verticalAlign=middle;fontFamily=Helvetica;fontSize=11;fontColor=default;endArrow=classic;" parent="1" source="Muvezk4lKv8oPnv4ykob-14" target="Muvezk4lKv8oPnv4ykob-18" edge="1">
          <mxGeometry relative="1" as="geometry" />
        </mxCell>
        <mxCell id="Muvezk4lKv8oPnv4ykob-23" style="edgeStyle=orthogonalEdgeStyle;shape=connector;curved=0;rounded=1;jumpStyle=arc;orthogonalLoop=1;jettySize=auto;html=1;exitX=1;exitY=0.5;exitDx=0;exitDy=0;exitPerimeter=0;entryX=0;entryY=0.5;entryDx=0;entryDy=0;entryPerimeter=0;labelBackgroundColor=default;strokeColor=default;strokeWidth=1;align=center;verticalAlign=middle;fontFamily=Helvetica;fontSize=11;fontColor=default;endArrow=classic;opacity=30;" parent="1" source="Muvezk4lKv8oPnv4ykob-20" target="Muvezk4lKv8oPnv4ykob-3" edge="1">
          <mxGeometry relative="1" as="geometry">
            <Array as="points">
              <mxPoint x="890" y="335" />
              <mxPoint x="890" y="400" />
            </Array>
          </mxGeometry>
        </mxCell>
        <mxCell id="Muvezk4lKv8oPnv4ykob-24" value="Cleanup" style="rounded=1;whiteSpace=wrap;html=1;sketch=0;container=1;recursiveResize=0;verticalAlign=top;arcSize=6;fontStyle=0;autosize=0;points=[];absoluteArcSize=1;shadow=1;strokeColor=#001DBC;fillColor=#0050ef;fontColor=#ffffff;fontFamily=Helvetica;fontSize=11;" parent="1" vertex="1">
          <mxGeometry x="930" y="240" width="130" height="125" as="geometry">
            <mxRectangle x="-98" y="-1230" width="99" height="26" as="alternateBounds" />
          </mxGeometry>
        </mxCell>
        <mxCell id="Muvezk4lKv8oPnv4ykob-25" value="input" style="rounded=1;whiteSpace=wrap;html=1;sketch=0;points=[[0,0.5,0,0,0],[1,0.5,0,0,0]];arcSize=50;fontFamily=Helvetica;fontSize=11;fontColor=default;" parent="Muvezk4lKv8oPnv4ykob-24" vertex="1">
          <mxGeometry x="-18.75" y="40" width="66" height="25" as="geometry" />
        </mxCell>
        <mxCell id="Muvezk4lKv8oPnv4ykob-26" value="output" style="rounded=1;whiteSpace=wrap;html=1;sketch=0;points=[[0,0.5,0,0,0],[1,0.5,0,0,0]];fillColor=#1ba1e2;fontColor=#ffffff;strokeColor=#006EAF;arcSize=50;fontFamily=Helvetica;fontSize=11;" parent="Muvezk4lKv8oPnv4ykob-24" vertex="1">
          <mxGeometry x="82.75" y="40" width="66" height="25" as="geometry" />
        </mxCell>
        <mxCell id="Muvezk4lKv8oPnv4ykob-27" value="error" style="rounded=1;whiteSpace=wrap;sketch=0;points=[[0,0.5,0,0,0],[1,0.5,0,0,0]];fillColor=#1ba1e2;fontColor=#ffffff;strokeColor=#006EAF;arcSize=50;fontFamily=Helvetica;fontSize=11;opacity=30;textOpacity=30;" parent="Muvezk4lKv8oPnv4ykob-24" vertex="1">
          <mxGeometry x="82.75" y="82.5" width="66" height="25" as="geometry" />
        </mxCell>
        <mxCell id="Muvezk4lKv8oPnv4ykob-28" style="edgeStyle=orthogonalEdgeStyle;rounded=1;orthogonalLoop=1;jettySize=auto;html=1;exitX=1;exitY=0.5;exitDx=0;exitDy=0;exitPerimeter=0;entryX=0;entryY=0.5;entryDx=0;entryDy=0;entryPerimeter=0;strokeWidth=2;curved=0;jumpStyle=arc;" parent="1" source="Muvezk4lKv8oPnv4ykob-19" target="Muvezk4lKv8oPnv4ykob-25" edge="1">
          <mxGeometry relative="1" as="geometry" />
        </mxCell>
        <mxCell id="Muvezk4lKv8oPnv4ykob-29" style="edgeStyle=orthogonalEdgeStyle;shape=connector;curved=0;rounded=1;jumpStyle=arc;orthogonalLoop=1;jettySize=auto;html=1;exitX=1;exitY=0.5;exitDx=0;exitDy=0;exitPerimeter=0;labelBackgroundColor=default;strokeColor=default;strokeWidth=2;align=center;verticalAlign=middle;fontFamily=Helvetica;fontSize=11;fontColor=default;endArrow=classic;" parent="1" source="Muvezk4lKv8oPnv4ykob-26" target="Muvezk4lKv8oPnv4ykob-2" edge="1">
          <mxGeometry relative="1" as="geometry" />
        </mxCell>
        <mxCell id="Muvezk4lKv8oPnv4ykob-30" style="edgeStyle=orthogonalEdgeStyle;shape=connector;curved=0;rounded=1;jumpStyle=arc;orthogonalLoop=1;jettySize=auto;html=1;exitX=1;exitY=0.5;exitDx=0;exitDy=0;exitPerimeter=0;entryX=0;entryY=0.5;entryDx=0;entryDy=0;entryPerimeter=0;labelBackgroundColor=default;strokeColor=default;strokeWidth=1;align=center;verticalAlign=middle;fontFamily=Helvetica;fontSize=11;fontColor=default;endArrow=classic;opacity=30;" parent="1" source="Muvezk4lKv8oPnv4ykob-27" target="Muvezk4lKv8oPnv4ykob-3" edge="1">
          <mxGeometry relative="1" as="geometry" />
        </mxCell>
      </root>
    </mxGraphModel>
  </diagram>
  <diagram id="tdX2_95LEIDNDVLNdQ2E" name="...">
    <mxGraphModel dx="1114" dy="693" grid="1" gridSize="10" guides="1" tooltips="1" connect="1" arrows="1" fold="1" page="1" pageScale="1" pageWidth="850" pageHeight="1100" math="0" shadow="0">
      <root>
        <mxCell id="0" />
        <mxCell id="1" parent="0" />
      </root>
    </mxGraphModel>
  </diagram>
  <diagram id="TvvrVSdT_zPRCpEIXDPp" name="Scheme to JS">
    <mxGraphModel dx="1114" dy="670" grid="1" gridSize="10" guides="1" tooltips="1" connect="1" arrows="1" fold="1" page="1" pageScale="1" pageWidth="850" pageHeight="1100" math="0" shadow="0">
      <root>
        <mxCell id="0" />
        <mxCell id="1" parent="0" />
        <mxCell id="-tYSOe76EmQtolpYd8bz-1" style="edgeStyle=orthogonalEdgeStyle;shape=connector;rounded=1;jumpStyle=arc;orthogonalLoop=1;jettySize=auto;html=1;exitX=1;exitY=0.5;exitDx=0;exitDy=0;exitPerimeter=0;entryX=0;entryY=0.5;entryDx=0;entryDy=0;entryPerimeter=0;labelBackgroundColor=default;strokeColor=#666666;strokeWidth=2;fontFamily=Helvetica;fontSize=11;fontColor=default;endArrow=classic;fillColor=#f5f5f5;opacity=90;" parent="1" source="-tYSOe76EmQtolpYd8bz-6" target="-tYSOe76EmQtolpYd8bz-13" edge="1">
          <mxGeometry relative="1" as="geometry">
            <mxPoint x="183.25" y="460" as="targetPoint" />
          </mxGeometry>
        </mxCell>
        <mxCell id="-tYSOe76EmQtolpYd8bz-2" style="edgeStyle=orthogonalEdgeStyle;shape=connector;rounded=1;jumpStyle=arc;orthogonalLoop=1;jettySize=auto;html=1;exitX=1;exitY=0.5;exitDx=0;exitDy=0;exitPerimeter=0;entryX=0;entryY=0.5;entryDx=0;entryDy=0;entryPerimeter=0;labelBackgroundColor=default;strokeColor=#666666;strokeWidth=1;fontFamily=Helvetica;fontSize=11;fontColor=default;endArrow=classic;fillColor=#f5f5f5;opacity=30;" parent="1" source="-tYSOe76EmQtolpYd8bz-6" target="-tYSOe76EmQtolpYd8bz-32" edge="1">
          <mxGeometry relative="1" as="geometry">
            <mxPoint x="183.25" y="260" as="targetPoint" />
          </mxGeometry>
        </mxCell>
        <mxCell id="-tYSOe76EmQtolpYd8bz-3" style="edgeStyle=orthogonalEdgeStyle;shape=connector;rounded=1;jumpStyle=none;orthogonalLoop=1;jettySize=auto;html=1;exitX=1;exitY=0.5;exitDx=0;exitDy=0;exitPerimeter=0;entryX=0;entryY=0.5;entryDx=0;entryDy=0;entryPerimeter=0;labelBackgroundColor=default;strokeColor=#666666;strokeWidth=1;fontFamily=Helvetica;fontSize=11;fontColor=default;endArrow=classic;fillColor=#f5f5f5;opacity=30;" parent="1" source="-tYSOe76EmQtolpYd8bz-6" target="-tYSOe76EmQtolpYd8bz-28" edge="1">
          <mxGeometry relative="1" as="geometry">
            <mxPoint x="183.25" y="170" as="targetPoint" />
          </mxGeometry>
        </mxCell>
        <mxCell id="-tYSOe76EmQtolpYd8bz-4" style="edgeStyle=orthogonalEdgeStyle;shape=connector;rounded=1;jumpStyle=none;orthogonalLoop=1;jettySize=auto;html=1;exitX=1;exitY=0.5;exitDx=0;exitDy=0;exitPerimeter=0;entryX=0;entryY=0.5;entryDx=0;entryDy=0;entryPerimeter=0;labelBackgroundColor=default;strokeColor=#666666;strokeWidth=1;fontFamily=Helvetica;fontSize=11;fontColor=default;endArrow=classic;fillColor=#f5f5f5;opacity=30;" parent="1" source="-tYSOe76EmQtolpYd8bz-6" target="-tYSOe76EmQtolpYd8bz-21" edge="1">
          <mxGeometry relative="1" as="geometry">
            <mxPoint x="183.25" y="60" as="targetPoint" />
            <Array as="points">
              <mxPoint x="160" y="398" />
              <mxPoint x="160" y="260" />
            </Array>
          </mxGeometry>
        </mxCell>
        <mxCell id="-tYSOe76EmQtolpYd8bz-5" style="edgeStyle=orthogonalEdgeStyle;rounded=1;orthogonalLoop=1;jettySize=auto;html=1;exitX=1;exitY=0.5;exitDx=0;exitDy=0;exitPerimeter=0;entryX=0;entryY=0.5;entryDx=0;entryDy=0;entryPerimeter=0;opacity=30;" parent="1" source="-tYSOe76EmQtolpYd8bz-6" target="-tYSOe76EmQtolpYd8bz-24" edge="1">
          <mxGeometry relative="1" as="geometry">
            <mxPoint x="183.25" y="350" as="targetPoint" />
          </mxGeometry>
        </mxCell>
        <mxCell id="-tYSOe76EmQtolpYd8bz-6" value="input" style="rhombus;whiteSpace=wrap;html=1;rounded=1;fontStyle=1;glass=0;sketch=0;fontSize=12;points=[[0,0.5,0,0,0],[0.5,0,0,0,0],[0.5,1,0,0,0],[1,0.5,0,0,0]];shadow=1;fontFamily=Helvetica;fontColor=default;" parent="1" vertex="1">
          <mxGeometry x="40" y="357.5" width="80" height="80" as="geometry" />
        </mxCell>
        <mxCell id="-tYSOe76EmQtolpYd8bz-7" value="output" style="rhombus;whiteSpace=wrap;html=1;rounded=1;fillColor=#0050ef;fontColor=#ffffff;strokeColor=#001DBC;fontStyle=1;glass=0;sketch=0;fontSize=12;points=[[0,0.5,0,0,0],[0.5,0,0,0,0],[0.5,1,0,0,0],[1,0.5,0,0,0]];shadow=1;fontFamily=Helvetica;" parent="1" vertex="1">
          <mxGeometry x="750" y="220" width="80" height="80" as="geometry" />
        </mxCell>
        <mxCell id="-tYSOe76EmQtolpYd8bz-8" value="Transpile" style="rounded=1;whiteSpace=wrap;html=1;sketch=0;container=1;recursiveResize=0;verticalAlign=top;arcSize=6;fontStyle=1;autosize=0;points=[];absoluteArcSize=1;shadow=1;strokeColor=#001DBC;fillColor=#0050ef;fontColor=#ffffff;fontFamily=Helvetica;fontSize=11;" parent="1" vertex="1">
          <mxGeometry x="500" y="220" width="130" height="210" as="geometry">
            <mxRectangle x="-98" y="-1230" width="99" height="26" as="alternateBounds" />
          </mxGeometry>
        </mxCell>
        <mxCell id="-tYSOe76EmQtolpYd8bz-9" value="ohmfn" style="rounded=1;whiteSpace=wrap;html=1;sketch=0;points=[[0,0.5,0,0,0],[1,0.5,0,0,0]];arcSize=50;fontFamily=Helvetica;fontSize=11;fontColor=default;fontStyle=0" parent="-tYSOe76EmQtolpYd8bz-8" vertex="1">
          <mxGeometry x="-17" y="57.5" width="66" height="25" as="geometry" />
        </mxCell>
        <mxCell id="-tYSOe76EmQtolpYd8bz-10" value="output" style="rounded=1;whiteSpace=wrap;html=1;sketch=0;points=[[0,0.5,0,0,0],[1,0.5,0,0,0]];fillColor=#1ba1e2;fontColor=#ffffff;strokeColor=#006EAF;arcSize=50;fontFamily=Helvetica;fontSize=11;" parent="-tYSOe76EmQtolpYd8bz-8" vertex="1">
          <mxGeometry x="84.75" y="27.5" width="66" height="25" as="geometry" />
        </mxCell>
        <mxCell id="-tYSOe76EmQtolpYd8bz-11" value="error" style="rounded=1;whiteSpace=wrap;html=1;sketch=0;points=[[0,0.5,0,0,0],[1,0.5,0,0,0]];fillColor=#1ba1e2;fontColor=#ffffff;strokeColor=#006EAF;arcSize=50;fontFamily=Helvetica;fontSize=11;" parent="-tYSOe76EmQtolpYd8bz-8" vertex="1">
          <mxGeometry x="84.75" y="70" width="66" height="25" as="geometry" />
        </mxCell>
        <mxCell id="-tYSOe76EmQtolpYd8bz-12" value="rwrfn" style="rounded=1;whiteSpace=wrap;html=1;sketch=0;points=[[0,0.5,0,0,0],[1,0.5,0,0,0]];arcSize=50;fontFamily=Helvetica;fontSize=11;fontColor=default;" parent="-tYSOe76EmQtolpYd8bz-8" vertex="1">
          <mxGeometry x="-17" y="92.5" width="66" height="25" as="geometry" />
        </mxCell>
        <mxCell id="-tYSOe76EmQtolpYd8bz-13" value="input" style="rounded=1;whiteSpace=wrap;html=1;sketch=0;points=[[0,0.5,0,0,0],[1,0.5,0,0,0]];arcSize=50;fontFamily=Helvetica;fontSize=11;fontColor=default;" parent="-tYSOe76EmQtolpYd8bz-8" vertex="1">
          <mxGeometry x="-17" y="165" width="66" height="25" as="geometry" />
        </mxCell>
        <mxCell id="-tYSOe76EmQtolpYd8bz-14" value="grammar name" style="rounded=1;whiteSpace=wrap;html=1;sketch=0;points=[[0,0.5,0,0,0],[1,0.5,0,0,0]];arcSize=50;fontFamily=Helvetica;fontSize=11;fontColor=default;" parent="-tYSOe76EmQtolpYd8bz-8" vertex="1">
          <mxGeometry x="-16" y="27.5" width="66" height="25" as="geometry" />
        </mxCell>
        <mxCell id="-tYSOe76EmQtolpYd8bz-15" value="rwrsupportfn" style="rounded=1;whiteSpace=wrap;html=1;sketch=0;points=[[0,0.5,0,0,0],[1,0.5,0,0,0]];arcSize=50;fontFamily=Helvetica;fontSize=11;fontColor=default;" parent="-tYSOe76EmQtolpYd8bz-8" vertex="1">
          <mxGeometry x="-17" y="127.5" width="66" height="25" as="geometry" />
        </mxCell>
        <mxCell id="-tYSOe76EmQtolpYd8bz-16" style="edgeStyle=orthogonalEdgeStyle;shape=connector;rounded=1;jumpStyle=arc;orthogonalLoop=1;jettySize=auto;html=1;exitX=1;exitY=0.5;exitDx=0;exitDy=0;exitPerimeter=0;entryX=0;entryY=0.5;entryDx=0;entryDy=0;entryPerimeter=0;labelBackgroundColor=default;strokeColor=#666666;strokeWidth=2;fontFamily=Helvetica;fontSize=11;fontColor=default;endArrow=classic;fillColor=#f5f5f5;opacity=90;" parent="1" source="-tYSOe76EmQtolpYd8bz-10" target="-tYSOe76EmQtolpYd8bz-7" edge="1">
          <mxGeometry relative="1" as="geometry" />
        </mxCell>
        <mxCell id="-tYSOe76EmQtolpYd8bz-17" value="error" style="rhombus;whiteSpace=wrap;html=1;rounded=1;fillColor=#0050ef;fontColor=#ffffff;strokeColor=#001DBC;fontStyle=1;glass=0;sketch=0;fontSize=12;points=[[0,0.5,0,0,0],[0.5,0,0,0,0],[0.5,1,0,0,0],[1,0.5,0,0,0]];shadow=1;fontFamily=Helvetica;" parent="1" vertex="1">
          <mxGeometry x="750" y="400" width="80" height="80" as="geometry" />
        </mxCell>
        <mxCell id="-tYSOe76EmQtolpYd8bz-18" style="edgeStyle=orthogonalEdgeStyle;shape=connector;rounded=1;jumpStyle=arc;orthogonalLoop=1;jettySize=auto;html=1;exitX=1;exitY=0.5;exitDx=0;exitDy=0;exitPerimeter=0;entryX=0;entryY=0.5;entryDx=0;entryDy=0;entryPerimeter=0;labelBackgroundColor=default;strokeColor=#666666;strokeWidth=1;fontFamily=Helvetica;fontSize=11;fontColor=default;endArrow=classic;fillColor=#f5f5f5;opacity=90;" parent="1" source="-tYSOe76EmQtolpYd8bz-11" target="-tYSOe76EmQtolpYd8bz-17" edge="1">
          <mxGeometry relative="1" as="geometry" />
        </mxCell>
        <mxCell id="-tYSOe76EmQtolpYd8bz-19" value="&#39;scm2js0d&#39;" style="rounded=1;whiteSpace=wrap;html=1;sketch=0;container=1;recursiveResize=0;verticalAlign=middle;arcSize=6;fontStyle=1;autosize=0;points=[];absoluteArcSize=1;shadow=0;strokeColor=#6c8ebf;fillColor=#dae8fc;fontFamily=Helvetica;fontSize=11;gradientColor=#E6E6E6;" parent="1" vertex="1">
          <mxGeometry x="220" y="250" width="110" height="20" as="geometry">
            <mxRectangle x="-98" y="-1230" width="99" height="26" as="alternateBounds" />
          </mxGeometry>
        </mxCell>
        <mxCell id="-tYSOe76EmQtolpYd8bz-20" value="⍺" style="rounded=1;whiteSpace=wrap;html=1;sketch=0;points=[[0,0.5,0,0,0],[1,0.5,0,0,0]];arcSize=50;fontFamily=Helvetica;fontSize=11;fontColor=default;" parent="-tYSOe76EmQtolpYd8bz-19" vertex="1">
          <mxGeometry x="100" y="3.75" width="20" height="12.5" as="geometry" />
        </mxCell>
        <mxCell id="-tYSOe76EmQtolpYd8bz-21" value="⍺" style="rounded=1;whiteSpace=wrap;html=1;sketch=0;points=[[0,0.5,0,0,0],[1,0.5,0,0,0]];arcSize=50;fontFamily=Helvetica;fontSize=11;fontColor=default;" parent="-tYSOe76EmQtolpYd8bz-19" vertex="1">
          <mxGeometry x="-10" y="3.75" width="20" height="12.5" as="geometry" />
        </mxCell>
        <mxCell id="-tYSOe76EmQtolpYd8bz-22" value="&#39;null.js&#39;" style="rounded=1;whiteSpace=wrap;html=1;sketch=0;container=1;recursiveResize=0;verticalAlign=middle;arcSize=6;fontStyle=1;autosize=0;points=[];absoluteArcSize=1;shadow=0;strokeColor=#6c8ebf;fillColor=#dae8fc;fontFamily=Helvetica;fontSize=11;gradientColor=#E6E6E6;" parent="1" vertex="1">
          <mxGeometry x="210" y="350" width="200" height="20" as="geometry">
            <mxRectangle x="-98" y="-1230" width="99" height="26" as="alternateBounds" />
          </mxGeometry>
        </mxCell>
        <mxCell id="-tYSOe76EmQtolpYd8bz-23" value="⍺" style="rounded=1;whiteSpace=wrap;html=1;sketch=0;points=[[0,0.5,0,0,0],[1,0.5,0,0,0]];arcSize=50;fontFamily=Helvetica;fontSize=11;fontColor=default;" parent="-tYSOe76EmQtolpYd8bz-22" vertex="1">
          <mxGeometry x="190" y="3.75" width="20" height="12.5" as="geometry" />
        </mxCell>
        <mxCell id="-tYSOe76EmQtolpYd8bz-24" value="⍺" style="rounded=1;whiteSpace=wrap;html=1;sketch=0;points=[[0,0.5,0,0,0],[1,0.5,0,0,0]];arcSize=50;fontFamily=Helvetica;fontSize=11;fontColor=default;" parent="-tYSOe76EmQtolpYd8bz-22" vertex="1">
          <mxGeometry x="-10" y="3.75" width="20" height="12.5" as="geometry" />
        </mxCell>
        <mxCell id="-tYSOe76EmQtolpYd8bz-25" style="edgeStyle=orthogonalEdgeStyle;shape=connector;rounded=1;orthogonalLoop=1;jettySize=auto;html=1;entryX=0;entryY=0.5;entryDx=0;entryDy=0;entryPerimeter=0;labelBackgroundColor=default;strokeColor=default;strokeWidth=2;align=center;verticalAlign=middle;fontFamily=Helvetica;fontSize=11;fontColor=default;endArrow=classic;" parent="1" source="-tYSOe76EmQtolpYd8bz-23" target="-tYSOe76EmQtolpYd8bz-15" edge="1">
          <mxGeometry relative="1" as="geometry" />
        </mxCell>
        <mxCell id="-tYSOe76EmQtolpYd8bz-26" value="&#39;scm2js0d.ohm&#39;" style="rounded=1;whiteSpace=wrap;html=1;sketch=0;container=1;recursiveResize=0;verticalAlign=middle;arcSize=6;fontStyle=1;autosize=0;points=[];absoluteArcSize=1;shadow=0;strokeColor=#6c8ebf;fillColor=#dae8fc;fontFamily=Helvetica;fontSize=11;gradientColor=#E6E6E6;" parent="1" vertex="1">
          <mxGeometry x="210" y="280" width="200" height="20" as="geometry">
            <mxRectangle x="-98" y="-1230" width="99" height="26" as="alternateBounds" />
          </mxGeometry>
        </mxCell>
        <mxCell id="-tYSOe76EmQtolpYd8bz-27" value="⍺" style="rounded=1;whiteSpace=wrap;html=1;sketch=0;points=[[0,0.5,0,0,0],[1,0.5,0,0,0]];arcSize=50;fontFamily=Helvetica;fontSize=11;fontColor=default;" parent="-tYSOe76EmQtolpYd8bz-26" vertex="1">
          <mxGeometry x="190" y="3.75" width="20" height="12.5" as="geometry" />
        </mxCell>
        <mxCell id="-tYSOe76EmQtolpYd8bz-28" value="⍺" style="rounded=1;whiteSpace=wrap;html=1;sketch=0;points=[[0,0.5,0,0,0],[1,0.5,0,0,0]];arcSize=50;fontFamily=Helvetica;fontSize=11;fontColor=default;" parent="-tYSOe76EmQtolpYd8bz-26" vertex="1">
          <mxGeometry x="-10" y="3.75" width="20" height="12.5" as="geometry" />
        </mxCell>
        <mxCell id="-tYSOe76EmQtolpYd8bz-29" style="edgeStyle=orthogonalEdgeStyle;shape=connector;rounded=1;orthogonalLoop=1;jettySize=auto;html=1;exitX=1;exitY=0.5;exitDx=0;exitDy=0;exitPerimeter=0;entryX=0;entryY=0.5;entryDx=0;entryDy=0;entryPerimeter=0;labelBackgroundColor=default;strokeColor=default;strokeWidth=2;align=center;verticalAlign=middle;fontFamily=Helvetica;fontSize=11;fontColor=default;endArrow=classic;" parent="1" source="-tYSOe76EmQtolpYd8bz-27" target="-tYSOe76EmQtolpYd8bz-9" edge="1">
          <mxGeometry relative="1" as="geometry">
            <Array as="points">
              <mxPoint x="450" y="290" />
              <mxPoint x="450" y="290" />
            </Array>
          </mxGeometry>
        </mxCell>
        <mxCell id="-tYSOe76EmQtolpYd8bz-30" value="&#39;scm2js0d.rwr&#39;" style="rounded=1;whiteSpace=wrap;html=1;sketch=0;container=1;recursiveResize=0;verticalAlign=middle;arcSize=6;fontStyle=1;autosize=0;points=[];absoluteArcSize=1;shadow=0;strokeColor=#6c8ebf;fillColor=#dae8fc;fontFamily=Helvetica;fontSize=11;gradientColor=#E6E6E6;" parent="1" vertex="1">
          <mxGeometry x="210" y="315" width="200" height="20" as="geometry">
            <mxRectangle x="-98" y="-1230" width="99" height="26" as="alternateBounds" />
          </mxGeometry>
        </mxCell>
        <mxCell id="-tYSOe76EmQtolpYd8bz-31" value="⍺" style="rounded=1;whiteSpace=wrap;html=1;sketch=0;points=[[0,0.5,0,0,0],[1,0.5,0,0,0]];arcSize=50;fontFamily=Helvetica;fontSize=11;fontColor=default;" parent="-tYSOe76EmQtolpYd8bz-30" vertex="1">
          <mxGeometry x="190" y="3.75" width="20" height="12.5" as="geometry" />
        </mxCell>
        <mxCell id="-tYSOe76EmQtolpYd8bz-32" value="⍺" style="rounded=1;whiteSpace=wrap;html=1;sketch=0;points=[[0,0.5,0,0,0],[1,0.5,0,0,0]];arcSize=50;fontFamily=Helvetica;fontSize=11;fontColor=default;" parent="-tYSOe76EmQtolpYd8bz-30" vertex="1">
          <mxGeometry x="-10" y="3.75" width="20" height="12.5" as="geometry" />
        </mxCell>
        <mxCell id="-tYSOe76EmQtolpYd8bz-33" style="edgeStyle=orthogonalEdgeStyle;shape=connector;rounded=1;orthogonalLoop=1;jettySize=auto;html=1;labelBackgroundColor=default;strokeColor=default;strokeWidth=2;align=center;verticalAlign=middle;fontFamily=Helvetica;fontSize=11;fontColor=default;endArrow=classic;" parent="1" source="-tYSOe76EmQtolpYd8bz-31" target="-tYSOe76EmQtolpYd8bz-12" edge="1">
          <mxGeometry relative="1" as="geometry" />
        </mxCell>
        <mxCell id="-tYSOe76EmQtolpYd8bz-34" style="edgeStyle=orthogonalEdgeStyle;shape=connector;rounded=1;orthogonalLoop=1;jettySize=auto;html=1;exitX=1;exitY=0.5;exitDx=0;exitDy=0;exitPerimeter=0;entryX=0;entryY=0.5;entryDx=0;entryDy=0;entryPerimeter=0;labelBackgroundColor=default;strokeColor=default;strokeWidth=2;align=center;verticalAlign=middle;fontFamily=Helvetica;fontSize=11;fontColor=default;endArrow=classic;" parent="1" source="-tYSOe76EmQtolpYd8bz-20" target="-tYSOe76EmQtolpYd8bz-14" edge="1">
          <mxGeometry relative="1" as="geometry" />
        </mxCell>
      </root>
    </mxGraphModel>
  </diagram>
  <diagram name="Escape Whitespace" id="6ydanZl1UjnAQBLJmaP4">
    <mxGraphModel dx="1114" dy="670" grid="1" gridSize="10" guides="1" tooltips="1" connect="1" arrows="1" fold="1" page="1" pageScale="1" pageWidth="850" pageHeight="1100" math="0" shadow="0">
      <root>
        <mxCell id="ROPV56MymoUKp6Qeij12-0" />
        <mxCell id="ROPV56MymoUKp6Qeij12-1" parent="ROPV56MymoUKp6Qeij12-0" />
        <mxCell id="ROPV56MymoUKp6Qeij12-2" style="edgeStyle=orthogonalEdgeStyle;shape=connector;rounded=1;jumpStyle=arc;orthogonalLoop=1;jettySize=auto;html=1;exitX=1;exitY=0.5;exitDx=0;exitDy=0;exitPerimeter=0;entryX=0;entryY=0.5;entryDx=0;entryDy=0;entryPerimeter=0;labelBackgroundColor=default;strokeColor=#666666;strokeWidth=2;fontFamily=Helvetica;fontSize=11;fontColor=default;endArrow=classic;fillColor=#f5f5f5;opacity=90;" parent="ROPV56MymoUKp6Qeij12-1" source="ROPV56MymoUKp6Qeij12-7" target="ROPV56MymoUKp6Qeij12-14" edge="1">
          <mxGeometry relative="1" as="geometry">
            <mxPoint x="183.25" y="460" as="targetPoint" />
          </mxGeometry>
        </mxCell>
        <mxCell id="ROPV56MymoUKp6Qeij12-3" style="edgeStyle=orthogonalEdgeStyle;shape=connector;rounded=1;jumpStyle=arc;orthogonalLoop=1;jettySize=auto;html=1;exitX=1;exitY=0.5;exitDx=0;exitDy=0;exitPerimeter=0;entryX=0;entryY=0.5;entryDx=0;entryDy=0;entryPerimeter=0;labelBackgroundColor=default;strokeColor=#666666;strokeWidth=1;fontFamily=Helvetica;fontSize=11;fontColor=default;endArrow=classic;fillColor=#f5f5f5;opacity=30;" parent="ROPV56MymoUKp6Qeij12-1" source="ROPV56MymoUKp6Qeij12-7" target="ROPV56MymoUKp6Qeij12-33" edge="1">
          <mxGeometry relative="1" as="geometry">
            <mxPoint x="183.25" y="260" as="targetPoint" />
          </mxGeometry>
        </mxCell>
        <mxCell id="ROPV56MymoUKp6Qeij12-4" style="edgeStyle=orthogonalEdgeStyle;shape=connector;rounded=1;jumpStyle=none;orthogonalLoop=1;jettySize=auto;html=1;exitX=1;exitY=0.5;exitDx=0;exitDy=0;exitPerimeter=0;entryX=0;entryY=0.5;entryDx=0;entryDy=0;entryPerimeter=0;labelBackgroundColor=default;strokeColor=#666666;strokeWidth=1;fontFamily=Helvetica;fontSize=11;fontColor=default;endArrow=classic;fillColor=#f5f5f5;opacity=30;" parent="ROPV56MymoUKp6Qeij12-1" source="ROPV56MymoUKp6Qeij12-7" target="ROPV56MymoUKp6Qeij12-29" edge="1">
          <mxGeometry relative="1" as="geometry">
            <mxPoint x="183.25" y="170" as="targetPoint" />
          </mxGeometry>
        </mxCell>
        <mxCell id="ROPV56MymoUKp6Qeij12-5" style="edgeStyle=orthogonalEdgeStyle;shape=connector;rounded=1;jumpStyle=none;orthogonalLoop=1;jettySize=auto;html=1;exitX=1;exitY=0.5;exitDx=0;exitDy=0;exitPerimeter=0;entryX=0;entryY=0.5;entryDx=0;entryDy=0;entryPerimeter=0;labelBackgroundColor=default;strokeColor=#666666;strokeWidth=1;fontFamily=Helvetica;fontSize=11;fontColor=default;endArrow=classic;fillColor=#f5f5f5;opacity=30;" parent="ROPV56MymoUKp6Qeij12-1" source="ROPV56MymoUKp6Qeij12-7" target="ROPV56MymoUKp6Qeij12-22" edge="1">
          <mxGeometry relative="1" as="geometry">
            <mxPoint x="183.25" y="60" as="targetPoint" />
            <Array as="points">
              <mxPoint x="160" y="398" />
              <mxPoint x="160" y="260" />
            </Array>
          </mxGeometry>
        </mxCell>
        <mxCell id="ROPV56MymoUKp6Qeij12-6" style="edgeStyle=orthogonalEdgeStyle;rounded=1;orthogonalLoop=1;jettySize=auto;html=1;exitX=1;exitY=0.5;exitDx=0;exitDy=0;exitPerimeter=0;entryX=0;entryY=0.5;entryDx=0;entryDy=0;entryPerimeter=0;opacity=30;" parent="ROPV56MymoUKp6Qeij12-1" source="ROPV56MymoUKp6Qeij12-7" target="ROPV56MymoUKp6Qeij12-25" edge="1">
          <mxGeometry relative="1" as="geometry">
            <mxPoint x="183.25" y="350" as="targetPoint" />
          </mxGeometry>
        </mxCell>
        <mxCell id="ROPV56MymoUKp6Qeij12-7" value="input" style="rhombus;whiteSpace=wrap;html=1;rounded=1;fontStyle=1;glass=0;sketch=0;fontSize=12;points=[[0,0.5,0,0,0],[0.5,0,0,0,0],[0.5,1,0,0,0],[1,0.5,0,0,0]];shadow=1;fontFamily=Helvetica;fontColor=default;" parent="ROPV56MymoUKp6Qeij12-1" vertex="1">
          <mxGeometry x="40" y="357.5" width="80" height="80" as="geometry" />
        </mxCell>
        <mxCell id="ROPV56MymoUKp6Qeij12-8" value="output" style="rhombus;whiteSpace=wrap;html=1;rounded=1;fillColor=#0050ef;fontColor=#ffffff;strokeColor=#001DBC;fontStyle=1;glass=0;sketch=0;fontSize=12;points=[[0,0.5,0,0,0],[0.5,0,0,0,0],[0.5,1,0,0,0],[1,0.5,0,0,0]];shadow=1;fontFamily=Helvetica;" parent="ROPV56MymoUKp6Qeij12-1" vertex="1">
          <mxGeometry x="750" y="220" width="80" height="80" as="geometry" />
        </mxCell>
        <mxCell id="ROPV56MymoUKp6Qeij12-9" value="Transpile" style="rounded=1;whiteSpace=wrap;html=1;sketch=0;container=1;recursiveResize=0;verticalAlign=top;arcSize=6;fontStyle=1;autosize=0;points=[];absoluteArcSize=1;shadow=1;strokeColor=#001DBC;fillColor=#0050ef;fontColor=#ffffff;fontFamily=Helvetica;fontSize=11;" parent="ROPV56MymoUKp6Qeij12-1" vertex="1">
          <mxGeometry x="500" y="220" width="130" height="210" as="geometry">
            <mxRectangle x="-98" y="-1230" width="99" height="26" as="alternateBounds" />
          </mxGeometry>
        </mxCell>
        <mxCell id="ROPV56MymoUKp6Qeij12-10" value="ohmfn" style="rounded=1;whiteSpace=wrap;html=1;sketch=0;points=[[0,0.5,0,0,0],[1,0.5,0,0,0]];arcSize=50;fontFamily=Helvetica;fontSize=11;fontColor=default;fontStyle=0" parent="ROPV56MymoUKp6Qeij12-9" vertex="1">
          <mxGeometry x="-17" y="57.5" width="66" height="25" as="geometry" />
        </mxCell>
        <mxCell id="ROPV56MymoUKp6Qeij12-11" value="output" style="rounded=1;whiteSpace=wrap;html=1;sketch=0;points=[[0,0.5,0,0,0],[1,0.5,0,0,0]];fillColor=#1ba1e2;fontColor=#ffffff;strokeColor=#006EAF;arcSize=50;fontFamily=Helvetica;fontSize=11;" parent="ROPV56MymoUKp6Qeij12-9" vertex="1">
          <mxGeometry x="84.75" y="27.5" width="66" height="25" as="geometry" />
        </mxCell>
        <mxCell id="ROPV56MymoUKp6Qeij12-12" value="error" style="rounded=1;whiteSpace=wrap;html=1;sketch=0;points=[[0,0.5,0,0,0],[1,0.5,0,0,0]];fillColor=#1ba1e2;fontColor=#ffffff;strokeColor=#006EAF;arcSize=50;fontFamily=Helvetica;fontSize=11;" parent="ROPV56MymoUKp6Qeij12-9" vertex="1">
          <mxGeometry x="84.75" y="70" width="66" height="25" as="geometry" />
        </mxCell>
        <mxCell id="ROPV56MymoUKp6Qeij12-13" value="rwrfn" style="rounded=1;whiteSpace=wrap;html=1;sketch=0;points=[[0,0.5,0,0,0],[1,0.5,0,0,0]];arcSize=50;fontFamily=Helvetica;fontSize=11;fontColor=default;" parent="ROPV56MymoUKp6Qeij12-9" vertex="1">
          <mxGeometry x="-17" y="92.5" width="66" height="25" as="geometry" />
        </mxCell>
        <mxCell id="ROPV56MymoUKp6Qeij12-14" value="input" style="rounded=1;whiteSpace=wrap;html=1;sketch=0;points=[[0,0.5,0,0,0],[1,0.5,0,0,0]];arcSize=50;fontFamily=Helvetica;fontSize=11;fontColor=default;" parent="ROPV56MymoUKp6Qeij12-9" vertex="1">
          <mxGeometry x="-17" y="165" width="66" height="25" as="geometry" />
        </mxCell>
        <mxCell id="ROPV56MymoUKp6Qeij12-15" value="grammar name" style="rounded=1;whiteSpace=wrap;html=1;sketch=0;points=[[0,0.5,0,0,0],[1,0.5,0,0,0]];arcSize=50;fontFamily=Helvetica;fontSize=11;fontColor=default;" parent="ROPV56MymoUKp6Qeij12-9" vertex="1">
          <mxGeometry x="-16" y="27.5" width="66" height="25" as="geometry" />
        </mxCell>
        <mxCell id="ROPV56MymoUKp6Qeij12-16" value="rwrsupportfn" style="rounded=1;whiteSpace=wrap;html=1;sketch=0;points=[[0,0.5,0,0,0],[1,0.5,0,0,0]];arcSize=50;fontFamily=Helvetica;fontSize=11;fontColor=default;" parent="ROPV56MymoUKp6Qeij12-9" vertex="1">
          <mxGeometry x="-17" y="127.5" width="66" height="25" as="geometry" />
        </mxCell>
        <mxCell id="ROPV56MymoUKp6Qeij12-17" style="edgeStyle=orthogonalEdgeStyle;shape=connector;rounded=1;jumpStyle=arc;orthogonalLoop=1;jettySize=auto;html=1;exitX=1;exitY=0.5;exitDx=0;exitDy=0;exitPerimeter=0;entryX=0;entryY=0.5;entryDx=0;entryDy=0;entryPerimeter=0;labelBackgroundColor=default;strokeColor=#666666;strokeWidth=2;fontFamily=Helvetica;fontSize=11;fontColor=default;endArrow=classic;fillColor=#f5f5f5;opacity=90;" parent="ROPV56MymoUKp6Qeij12-1" source="ROPV56MymoUKp6Qeij12-11" target="ROPV56MymoUKp6Qeij12-8" edge="1">
          <mxGeometry relative="1" as="geometry" />
        </mxCell>
        <mxCell id="ROPV56MymoUKp6Qeij12-18" value="error" style="rhombus;whiteSpace=wrap;html=1;rounded=1;fillColor=#0050ef;fontColor=#ffffff;strokeColor=#001DBC;fontStyle=1;glass=0;sketch=0;fontSize=12;points=[[0,0.5,0,0,0],[0.5,0,0,0,0],[0.5,1,0,0,0],[1,0.5,0,0,0]];shadow=1;fontFamily=Helvetica;" parent="ROPV56MymoUKp6Qeij12-1" vertex="1">
          <mxGeometry x="750" y="400" width="80" height="80" as="geometry" />
        </mxCell>
        <mxCell id="ROPV56MymoUKp6Qeij12-19" style="edgeStyle=orthogonalEdgeStyle;shape=connector;rounded=1;jumpStyle=arc;orthogonalLoop=1;jettySize=auto;html=1;exitX=1;exitY=0.5;exitDx=0;exitDy=0;exitPerimeter=0;entryX=0;entryY=0.5;entryDx=0;entryDy=0;entryPerimeter=0;labelBackgroundColor=default;strokeColor=#666666;strokeWidth=1;fontFamily=Helvetica;fontSize=11;fontColor=default;endArrow=classic;fillColor=#f5f5f5;opacity=90;" parent="ROPV56MymoUKp6Qeij12-1" source="ROPV56MymoUKp6Qeij12-12" target="ROPV56MymoUKp6Qeij12-18" edge="1">
          <mxGeometry relative="1" as="geometry" />
        </mxCell>
        <mxCell id="ROPV56MymoUKp6Qeij12-20" value="&#39;Escapes&#39;" style="rounded=1;whiteSpace=wrap;html=1;sketch=0;container=1;recursiveResize=0;verticalAlign=middle;arcSize=6;fontStyle=1;autosize=0;points=[];absoluteArcSize=1;shadow=0;strokeColor=#6c8ebf;fillColor=#dae8fc;fontFamily=Helvetica;fontSize=11;gradientColor=#E6E6E6;" parent="ROPV56MymoUKp6Qeij12-1" vertex="1">
          <mxGeometry x="220" y="250" width="110" height="20" as="geometry">
            <mxRectangle x="-98" y="-1230" width="99" height="26" as="alternateBounds" />
          </mxGeometry>
        </mxCell>
        <mxCell id="ROPV56MymoUKp6Qeij12-21" value="⍺" style="rounded=1;whiteSpace=wrap;html=1;sketch=0;points=[[0,0.5,0,0,0],[1,0.5,0,0,0]];arcSize=50;fontFamily=Helvetica;fontSize=11;fontColor=default;" parent="ROPV56MymoUKp6Qeij12-20" vertex="1">
          <mxGeometry x="100" y="3.75" width="20" height="12.5" as="geometry" />
        </mxCell>
        <mxCell id="ROPV56MymoUKp6Qeij12-22" value="⍺" style="rounded=1;whiteSpace=wrap;html=1;sketch=0;points=[[0,0.5,0,0,0],[1,0.5,0,0,0]];arcSize=50;fontFamily=Helvetica;fontSize=11;fontColor=default;" parent="ROPV56MymoUKp6Qeij12-20" vertex="1">
          <mxGeometry x="-10" y="3.75" width="20" height="12.5" as="geometry" />
        </mxCell>
        <mxCell id="ROPV56MymoUKp6Qeij12-23" value="&#39;escapessupport.js&#39;" style="rounded=1;whiteSpace=wrap;html=1;sketch=0;container=1;recursiveResize=0;verticalAlign=middle;arcSize=6;fontStyle=1;autosize=0;points=[];absoluteArcSize=1;shadow=0;strokeColor=#6c8ebf;fillColor=#dae8fc;fontFamily=Helvetica;fontSize=11;gradientColor=#E6E6E6;" parent="ROPV56MymoUKp6Qeij12-1" vertex="1">
          <mxGeometry x="210" y="350" width="200" height="20" as="geometry">
            <mxRectangle x="-98" y="-1230" width="99" height="26" as="alternateBounds" />
          </mxGeometry>
        </mxCell>
        <mxCell id="ROPV56MymoUKp6Qeij12-24" value="⍺" style="rounded=1;whiteSpace=wrap;html=1;sketch=0;points=[[0,0.5,0,0,0],[1,0.5,0,0,0]];arcSize=50;fontFamily=Helvetica;fontSize=11;fontColor=default;" parent="ROPV56MymoUKp6Qeij12-23" vertex="1">
          <mxGeometry x="190" y="3.75" width="20" height="12.5" as="geometry" />
        </mxCell>
        <mxCell id="ROPV56MymoUKp6Qeij12-25" value="⍺" style="rounded=1;whiteSpace=wrap;html=1;sketch=0;points=[[0,0.5,0,0,0],[1,0.5,0,0,0]];arcSize=50;fontFamily=Helvetica;fontSize=11;fontColor=default;" parent="ROPV56MymoUKp6Qeij12-23" vertex="1">
          <mxGeometry x="-10" y="3.75" width="20" height="12.5" as="geometry" />
        </mxCell>
        <mxCell id="ROPV56MymoUKp6Qeij12-26" style="edgeStyle=orthogonalEdgeStyle;shape=connector;rounded=1;orthogonalLoop=1;jettySize=auto;html=1;entryX=0;entryY=0.5;entryDx=0;entryDy=0;entryPerimeter=0;labelBackgroundColor=default;strokeColor=default;strokeWidth=2;align=center;verticalAlign=middle;fontFamily=Helvetica;fontSize=11;fontColor=default;endArrow=classic;" parent="ROPV56MymoUKp6Qeij12-1" source="ROPV56MymoUKp6Qeij12-24" target="ROPV56MymoUKp6Qeij12-16" edge="1">
          <mxGeometry relative="1" as="geometry" />
        </mxCell>
        <mxCell id="ROPV56MymoUKp6Qeij12-27" value="&#39;escapes.ohm&#39;" style="rounded=1;whiteSpace=wrap;html=1;sketch=0;container=1;recursiveResize=0;verticalAlign=middle;arcSize=6;fontStyle=1;autosize=0;points=[];absoluteArcSize=1;shadow=0;strokeColor=#6c8ebf;fillColor=#dae8fc;fontFamily=Helvetica;fontSize=11;gradientColor=#E6E6E6;" parent="ROPV56MymoUKp6Qeij12-1" vertex="1">
          <mxGeometry x="210" y="280" width="200" height="20" as="geometry">
            <mxRectangle x="-98" y="-1230" width="99" height="26" as="alternateBounds" />
          </mxGeometry>
        </mxCell>
        <mxCell id="ROPV56MymoUKp6Qeij12-28" value="⍺" style="rounded=1;whiteSpace=wrap;html=1;sketch=0;points=[[0,0.5,0,0,0],[1,0.5,0,0,0]];arcSize=50;fontFamily=Helvetica;fontSize=11;fontColor=default;" parent="ROPV56MymoUKp6Qeij12-27" vertex="1">
          <mxGeometry x="190" y="3.75" width="20" height="12.5" as="geometry" />
        </mxCell>
        <mxCell id="ROPV56MymoUKp6Qeij12-29" value="⍺" style="rounded=1;whiteSpace=wrap;html=1;sketch=0;points=[[0,0.5,0,0,0],[1,0.5,0,0,0]];arcSize=50;fontFamily=Helvetica;fontSize=11;fontColor=default;" parent="ROPV56MymoUKp6Qeij12-27" vertex="1">
          <mxGeometry x="-10" y="3.75" width="20" height="12.5" as="geometry" />
        </mxCell>
        <mxCell id="ROPV56MymoUKp6Qeij12-30" style="edgeStyle=orthogonalEdgeStyle;shape=connector;rounded=1;orthogonalLoop=1;jettySize=auto;html=1;exitX=1;exitY=0.5;exitDx=0;exitDy=0;exitPerimeter=0;entryX=0;entryY=0.5;entryDx=0;entryDy=0;entryPerimeter=0;labelBackgroundColor=default;strokeColor=default;strokeWidth=2;align=center;verticalAlign=middle;fontFamily=Helvetica;fontSize=11;fontColor=default;endArrow=classic;" parent="ROPV56MymoUKp6Qeij12-1" source="ROPV56MymoUKp6Qeij12-28" target="ROPV56MymoUKp6Qeij12-10" edge="1">
          <mxGeometry relative="1" as="geometry">
            <Array as="points">
              <mxPoint x="450" y="290" />
              <mxPoint x="450" y="290" />
            </Array>
          </mxGeometry>
        </mxCell>
        <mxCell id="ROPV56MymoUKp6Qeij12-31" value="&#39;escapes.rwr&#39;" style="rounded=1;whiteSpace=wrap;html=1;sketch=0;container=1;recursiveResize=0;verticalAlign=middle;arcSize=6;fontStyle=1;autosize=0;points=[];absoluteArcSize=1;shadow=0;strokeColor=#6c8ebf;fillColor=#dae8fc;fontFamily=Helvetica;fontSize=11;gradientColor=#E6E6E6;" parent="ROPV56MymoUKp6Qeij12-1" vertex="1">
          <mxGeometry x="210" y="315" width="200" height="20" as="geometry">
            <mxRectangle x="-98" y="-1230" width="99" height="26" as="alternateBounds" />
          </mxGeometry>
        </mxCell>
        <mxCell id="ROPV56MymoUKp6Qeij12-32" value="⍺" style="rounded=1;whiteSpace=wrap;html=1;sketch=0;points=[[0,0.5,0,0,0],[1,0.5,0,0,0]];arcSize=50;fontFamily=Helvetica;fontSize=11;fontColor=default;" parent="ROPV56MymoUKp6Qeij12-31" vertex="1">
          <mxGeometry x="190" y="3.75" width="20" height="12.5" as="geometry" />
        </mxCell>
        <mxCell id="ROPV56MymoUKp6Qeij12-33" value="⍺" style="rounded=1;whiteSpace=wrap;html=1;sketch=0;points=[[0,0.5,0,0,0],[1,0.5,0,0,0]];arcSize=50;fontFamily=Helvetica;fontSize=11;fontColor=default;" parent="ROPV56MymoUKp6Qeij12-31" vertex="1">
          <mxGeometry x="-10" y="3.75" width="20" height="12.5" as="geometry" />
        </mxCell>
        <mxCell id="ROPV56MymoUKp6Qeij12-34" style="edgeStyle=orthogonalEdgeStyle;shape=connector;rounded=1;orthogonalLoop=1;jettySize=auto;html=1;labelBackgroundColor=default;strokeColor=default;strokeWidth=2;align=center;verticalAlign=middle;fontFamily=Helvetica;fontSize=11;fontColor=default;endArrow=classic;" parent="ROPV56MymoUKp6Qeij12-1" source="ROPV56MymoUKp6Qeij12-32" target="ROPV56MymoUKp6Qeij12-13" edge="1">
          <mxGeometry relative="1" as="geometry" />
        </mxCell>
        <mxCell id="ROPV56MymoUKp6Qeij12-35" style="edgeStyle=orthogonalEdgeStyle;shape=connector;rounded=1;orthogonalLoop=1;jettySize=auto;html=1;exitX=1;exitY=0.5;exitDx=0;exitDy=0;exitPerimeter=0;entryX=0;entryY=0.5;entryDx=0;entryDy=0;entryPerimeter=0;labelBackgroundColor=default;strokeColor=default;strokeWidth=2;align=center;verticalAlign=middle;fontFamily=Helvetica;fontSize=11;fontColor=default;endArrow=classic;" parent="ROPV56MymoUKp6Qeij12-1" source="ROPV56MymoUKp6Qeij12-21" target="ROPV56MymoUKp6Qeij12-15" edge="1">
          <mxGeometry relative="1" as="geometry" />
        </mxCell>
      </root>
    </mxGraphModel>
  </diagram>
  <diagram id="0ppvzy0TI20KlcCKVxRf" name="Cleanup">
    <mxGraphModel dx="1114" dy="670" grid="1" gridSize="10" guides="1" tooltips="1" connect="1" arrows="1" fold="1" page="1" pageScale="1" pageWidth="850" pageHeight="1100" math="0" shadow="0">
      <root>
        <mxCell id="0" />
        <mxCell id="1" parent="0" />
        <mxCell id="97_FMzJ_gHK_9A240RH8-9" value="output" style="rhombus;whiteSpace=wrap;html=1;rounded=1;fillColor=#0050ef;fontColor=#ffffff;strokeColor=#001DBC;fontStyle=1;glass=0;sketch=0;fontSize=12;points=[[0,0.5,0,0,0],[0.5,0,0,0,0],[0.5,1,0,0,0],[1,0.5,0,0,0]];shadow=1;" parent="1" vertex="1">
          <mxGeometry x="620" y="217.5" width="80" height="80" as="geometry" />
        </mxCell>
        <mxCell id="97_FMzJ_gHK_9A240RH8-10" value="error" style="rhombus;whiteSpace=wrap;html=1;rounded=1;fillColor=#0050ef;fontColor=#ffffff;strokeColor=#001DBC;fontStyle=1;glass=0;sketch=0;fontSize=12;points=[[0,0.5,0,0,0],[0.5,0,0,0,0],[0.5,1,0,0,0],[1,0.5,0,0,0]];shadow=1;" parent="1" vertex="1">
          <mxGeometry x="620" y="325" width="80" height="80" as="geometry" />
        </mxCell>
        <mxCell id="97_FMzJ_gHK_9A240RH8-11" value="input" style="rhombus;whiteSpace=wrap;html=1;rounded=1;fontStyle=1;glass=0;sketch=0;fontSize=12;points=[[0,0.5,0,0,0],[0.5,0,0,0,0],[0.5,1,0,0,0],[1,0.5,0,0,0]];shadow=1;" parent="1" vertex="1">
          <mxGeometry x="260" y="217.5" width="80" height="80" as="geometry" />
        </mxCell>
        <mxCell id="97_FMzJ_gHK_9A240RH8-33" style="edgeStyle=orthogonalEdgeStyle;rounded=1;orthogonalLoop=1;jettySize=auto;html=1;exitX=1;exitY=0.5;exitDx=0;exitDy=0;exitPerimeter=0;entryX=0;entryY=0.5;entryDx=0;entryDy=0;entryPerimeter=0;curved=0;strokeWidth=2;" parent="1" source="97_FMzJ_gHK_9A240RH8-11" target="97_FMzJ_gHK_9A240RH8-9" edge="1">
          <mxGeometry relative="1" as="geometry">
            <mxPoint x="410" y="257.5" as="targetPoint" />
          </mxGeometry>
        </mxCell>
      </root>
    </mxGraphModel>
  </diagram>
</mxfile>
